Coordinates
version=1
nRows=58
nColumns=11
inDegrees=yes

Units are S.I. units (second, meters, Newtons, ...)
If the header above contains a line with 'inDegrees', this indicates whether rotational values are in degrees (yes) or radians (no).

endheader
time	pelvis_tilt	pelvis_tx	pelvis_ty	hip_flexion_l	hip_flexion_r	knee_angle_l	knee_angle_r	ankle_angle_l	ankle_angle_r	lumbar_extension
      3.57000000	     37.88188979	     -0.07506897	      1.09033088	     32.52083049	     35.38136087	    -64.49089137	    -67.53149853	    -39.23242158	    -49.04915861	    -28.96374463
      3.58000000	     37.80683380	     -0.07502975	      1.09027186	     32.56821087	     35.49669131	    -64.49681716	    -68.07508166	    -39.23597647	    -49.24974635	    -28.87429419
      3.59000000	     37.76298679	     -0.07500905	      1.09032132	     32.61525064	     35.54537160	    -64.54355282	    -68.53767256	    -39.30309658	    -49.42748380	    -28.82075560
      3.60000000	     37.73181900	     -0.07497905	      1.09031953	     32.64310122	     35.58823646	    -64.58680990	    -68.93836204	    -39.13332998	    -49.73110910	    -28.78027644
      3.61000000	     37.70846910	     -0.07498345	      1.09031284	     32.66532391	     35.61811337	    -64.62253421	    -69.26347923	    -39.17266364	    -49.94993765	    -28.75656558
      3.62000000	     37.66925734	     -0.07500925	      1.09030933	     32.70942595	     35.70104265	    -64.66151552	    -69.67886908	    -39.24018074	    -49.86326651	    -28.70852827
      3.63000000	     37.67425067	     -0.07500248	      1.09031579	     32.71274967	     35.67769525	    -64.71016658	    -69.82373750	    -39.24670126	    -50.14059388	    -28.70579457
      3.64000000	     37.67204144	     -0.07503645	      1.09032728	     32.71377766	     35.68164110	    -64.73860299	    -69.98997304	    -39.25745870	    -50.14547347	    -28.69743324
      3.65000000	     37.66573722	     -0.07509212	      1.09032583	     32.72363043	     35.68618241	    -64.76565369	    -70.11617833	    -39.26851453	    -50.15970238	    -28.69746269
      3.66000000	     37.64283668	     -0.07513376	      1.09031207	     32.75175552	     35.68723877	    -64.78457003	    -70.09416558	    -39.33780034	    -50.33352616	    -28.68463764
      3.67000000	     37.63973597	     -0.07516221	      1.09030301	     32.76268275	     35.65739640	    -64.82255631	    -69.99982758	    -39.33586888	    -50.34352132	    -28.68073501
      3.68000000	     37.63642932	     -0.07520329	      1.09028141	     32.77843949	     35.62385553	    -64.85252839	    -69.83686202	    -39.33960568	    -50.34586820	    -28.68564689
      3.69000000	     37.63715834	     -0.07525860	      1.09027500	     32.78327605	     35.58377506	    -64.86367654	    -69.67417675	    -39.34778285	    -50.33730365	    -28.68730943
      3.70000000	     37.71119058	     -0.07532559	      1.09029749	     32.71255179	     35.43509974	    -64.88102746	    -69.32642734	    -39.35947238	    -50.39269563	    -28.77583931
      3.71000000	     37.71707006	     -0.07538733	      1.09024734	     32.71573376	     35.35840228	    -64.88609059	    -68.97644960	    -39.33939786	    -50.25326081	    -28.79022286
      3.72000000	     37.75106477	     -0.07542617	      1.09024100	     32.68926662	     35.24714702	    -64.89312808	    -68.57028537	    -39.35397908	    -50.01237113	    -28.83384091
      3.73000000	     37.78043291	     -0.07549120	      1.09018970	     32.66868596	     35.14507226	    -64.89188360	    -68.10608160	    -39.36656507	    -49.85447598	    -28.87586665
      3.74000000	     37.83894376	     -0.07554304	      1.09023168	     32.60683025	     35.00219984	    -64.87506858	    -67.57435135	    -39.36018448	    -49.76491464	    -28.94668905
      3.75000000	     37.88069041	     -0.07558266	      1.09018354	     32.56770211	     34.88273308	    -64.85029081	    -67.01634217	    -39.39295482	    -49.60397356	    -28.99821363
      3.76000000	     37.94909008	     -0.07561554	      1.09021951	     32.49535140	     34.70404226	    -64.83027561	    -66.36598861	    -39.35593166	    -49.39051091	    -29.07397571
      3.77000000	     38.01976310	     -0.07564032	      1.09022250	     32.42591723	     34.54520372	    -64.80395615	    -65.72448223	    -39.30325066	    -49.20388913	    -29.15365715
      3.78000000	     38.02383354	     -0.07563852	      1.09023278	     32.42021563	     34.46759594	    -64.76338106	    -65.05484964	    -39.29017848	    -49.14607026	    -29.15016411
      3.79000000	     38.15240951	     -0.07566949	      1.09026030	     32.29050480	     34.26714115	    -64.73860038	    -64.41710300	    -39.31981407	    -48.77012119	    -29.29514139
      3.80000000	     38.27200620	     -0.07568264	      1.09031102	     32.16406667	     34.07266587	    -64.70193270	    -63.70564845	    -39.20446354	    -48.66231976	    -29.42242260
      3.81000000	     38.33065636	     -0.07568867	      1.09030474	     32.10458991	     33.96363279	    -64.65733745	    -63.03206047	    -39.19834475	    -48.33646193	    -29.48353324
      3.82000000	     38.43986246	     -0.07568981	      1.09031589	     31.95792531	     33.80666132	    -64.57154401	    -62.36052950	    -39.16953345	    -48.15368413	    -29.59742565
      3.83000000	     38.49564834	     -0.07571109	      1.09035302	     31.92961667	     33.71125196	    -64.54445470	    -61.68276918	    -39.16768234	    -47.78877915	    -29.65595558
      3.84000000	     38.58738148	     -0.07573025	      1.09036320	     31.84762023	     33.63360569	    -64.49233354	    -61.06798568	    -39.29436376	    -47.59680222	    -29.75354594
      3.85000000	     38.66847671	     -0.07576857	      1.09036880	     31.77042164	     33.54673652	    -64.43205416	    -60.43396336	    -39.25162122	    -47.43733064	    -29.84598540
      3.86000000	     38.74430843	     -0.07581025	      1.09036707	     31.70048618	     33.49315868	    -64.34750202	    -59.87226567	    -39.28007965	    -47.17253355	    -29.92965735
      3.87000000	     38.82099875	     -0.07585981	      1.09036810	     31.63538989	     33.45037677	    -64.34073366	    -59.32638170	    -39.08563908	    -47.01362539	    -30.01813276
      3.88000000	     38.89796570	     -0.07591716	      1.09037497	     31.56481938	     33.41899796	    -64.28629772	    -58.81677947	    -39.05515159	    -46.73336716	    -30.10569201
      3.89000000	     38.99824239	     -0.07597835	      1.09039012	     31.47430265	     33.37696296	    -64.23777208	    -58.35150933	    -39.01632397	    -46.51553217	    -30.21810391
      3.90000000	     39.02573885	     -0.07607846	      1.09033329	     31.46116454	     33.40204059	    -64.16931248	    -57.87850243	    -39.00072234	    -46.44485314	    -30.25648767
      3.91000000	     39.09217727	     -0.07618698	      1.09029904	     31.40924047	     33.41768315	    -64.11295788	    -57.48478305	    -38.96780379	    -46.15975203	    -30.35105378
      3.92000000	     39.16564509	     -0.07629637	      1.09025658	     31.35792829	     33.40958132	    -63.95266167	    -57.09811392	    -39.25282019	    -45.99657705	    -30.44670364
      3.93000000	     39.14253347	     -0.07648105	      1.09024796	     31.38154102	     33.43403071	    -63.92804502	    -56.60940754	    -39.01605643	    -45.91758734	    -30.45434566
      3.94000000	     39.25311347	     -0.07654464	      1.09021704	     31.28746780	     33.42953509	    -63.88561204	    -56.36108846	    -38.97834181	    -45.72844478	    -30.57249353
      3.95000000	     39.27550040	     -0.07662359	      1.09018117	     31.27908104	     33.46863854	    -63.82492354	    -56.05936593	    -38.96468625	    -45.69474972	    -30.62380223
      3.96000000	     39.36744706	     -0.07674699	      1.09017535	     31.19445885	     33.41096170	    -63.76656641	    -55.76468815	    -38.90743152	    -45.46326049	    -30.73216206
      3.97000000	     39.43839634	     -0.07682942	      1.09018543	     31.12901311	     33.34641247	    -63.70620785	    -55.43828779	    -38.86439761	    -45.55310024	    -30.81714797
      3.98000000	     39.45409387	     -0.07692663	      1.09018498	     31.11622646	     33.36541427	    -63.63056947	    -55.23532004	    -38.85119916	    -45.50311374	    -30.84449951
      3.99000000	     39.53537681	     -0.07700768	      1.09019790	     31.03595209	     33.28025463	    -63.56834532	    -55.00010521	    -38.81334013	    -45.40194979	    -30.95135177
      4.00000000	     39.54434649	     -0.07705306	      1.09018824	     31.02756363	     33.27232021	    -63.50213548	    -54.82070294	    -38.80147735	    -45.38146165	    -30.96588677
      4.01000000	     39.59587418	     -0.07713487	      1.09019408	     30.97636854	     33.23570473	    -63.44503214	    -54.72840751	    -38.73950605	    -45.22273190	    -31.03884957
      4.02000000	     39.60338315	     -0.07713951	      1.09018168	     30.96710031	     33.20448257	    -63.39285922	    -54.58932460	    -38.72246365	    -45.22439411	    -31.04500360
      4.03000000	     39.67012845	     -0.07716166	      1.09020989	     30.89794860	     33.11976557	    -63.25206002	    -54.53941568	    -38.90433365	    -45.21455458	    -31.12002885
      4.04000000	     39.67523646	     -0.07716753	      1.09020275	     30.87345781	     33.09472874	    -63.26792646	    -54.51224116	    -38.66187807	    -45.20594390	    -31.13795933
      4.05000000	     39.67049957	     -0.07714926	      1.09017480	     30.87701930	     33.07988320	    -63.22999078	    -54.53839117	    -38.66069521	    -45.20483451	    -31.13770251
      4.06000000	     39.66676849	     -0.07713921	      1.09018785	     30.88796654	     33.05203896	    -63.20241475	    -54.58392266	    -38.66089397	    -45.20472135	    -31.13550710
      4.07000000	     39.71439166	     -0.07709845	      1.09019466	     30.85192283	     32.98472309	    -63.43695143	    -54.70037987	    -38.06263625	    -45.20610493	    -31.18294456
      4.08000000	     39.71087150	     -0.07707117	      1.09019129	     30.85416872	     32.95870500	    -63.42122461	    -54.83583946	    -38.05817050	    -45.21540947	    -31.17620618
      4.09000000	     39.70829514	     -0.07702135	      1.09018382	     30.85415548	     32.92984269	    -63.41511520	    -55.01026385	    -38.05718971	    -45.24473150	    -31.16826697
      4.10000000	     39.72529928	     -0.07700353	      1.09024592	     30.82618479	     32.87357844	    -63.39817401	    -55.20270337	    -38.06129771	    -45.42656037	    -31.19541930
      4.11000000	     39.71881166	     -0.07696487	      1.09024143	     30.82679851	     32.85096657	    -63.40393454	    -55.44748452	    -38.05607045	    -45.45158121	    -31.17867953
      4.12000000	     39.70354792	     -0.07694393	      1.09023979	     30.83917190	     32.83662555	    -63.40295121	    -55.72004599	    -38.03231354	    -45.66391081	    -31.17057038
      4.13000000	     39.68862920	     -0.07693290	      1.09028490	     30.84368770	     32.83030305	    -63.40966190	    -56.06928054	    -38.03190045	    -45.68131187	    -31.15744921
      4.14000000	     39.66721344	     -0.07692140	      1.09033637	     30.85229202	     32.82127291	    -63.41198206	    -56.40903305	    -38.03027140	    -45.69060812	    -31.13490864
